<svg width="178" height="40" viewBox="0 0 178 40" fill="none" xmlns="http://www.w3.org/2000/svg">
<path d="M11.6667 11.6665H13.75V15.8332H11.6667V11.6665ZM11.6667 17.9165H13.75V22.0832H11.6667V17.9165ZM17.9167 11.6665H20V15.8332H17.9167V11.6665ZM17.9167 17.9165H20V22.0832H17.9167V17.9165ZM11.6667 24.1665H13.75V28.3332H11.6667V24.1665ZM17.9167 24.1665H20V28.3332H17.9167V24.1665Z" fill="white"/>
<path d="M34.5834 17.9165C34.5834 17.364 34.3639 16.8341 33.9732 16.4434C33.5825 16.0527 33.0526 15.8332 32.5 15.8332H26.25V7.49984C26.25 6.9473 26.0305 6.4174 25.6398 6.0267C25.2491 5.636 24.7192 5.4165 24.1667 5.4165H7.50002C6.94749 5.4165 6.41758 5.636 6.02688 6.0267C5.63618 6.4174 5.41669 6.9473 5.41669 7.49984V34.5832H34.5834V17.9165ZM7.50002 7.49984H24.1667V32.4998H7.50002V7.49984ZM26.25 32.4998V17.9165H32.5V32.4998H26.25Z" fill="white"/>
<path d="M58.016 29V12.2H70.688V15.488H61.688V18.896H69.608V22.184H61.688V25.712H70.808V29H58.016ZM73.2061 29V16.136H76.8541V17.96C77.6941 16.88 78.7981 15.896 80.6221 15.896C83.4061 15.896 84.9901 17.696 84.9901 20.672V29H81.3421V21.824C81.3421 20.096 80.5501 19.208 79.1341 19.208C77.7181 19.208 76.8541 20.096 76.8541 21.824V29H73.2061ZM91.9993 29.216C89.7913 29.216 88.2553 28.328 88.2553 25.352V19.256H86.7193V16.136H88.2553V12.848H91.9033V16.136H94.9273V19.256H91.9033V24.752C91.9033 25.592 92.2873 26 93.0793 26C93.7273 26 94.3273 25.856 94.8793 25.544V28.472C94.1113 28.928 93.2233 29.216 91.9993 29.216ZM102.857 29.288C98.9926 29.288 96.1366 26.576 96.1366 22.64V22.592C96.1366 18.92 98.7526 15.896 102.497 15.896C106.793 15.896 108.761 19.232 108.761 22.88C108.761 23.168 108.737 23.48 108.713 23.84H99.7606C100.121 25.496 101.273 26.36 102.905 26.36C104.129 26.36 104.993 25.976 106.025 25.04L108.113 26.888C106.889 28.4 105.185 29.288 102.857 29.288ZM99.7126 21.56H105.209C104.993 19.928 104.033 18.824 102.497 18.824C100.961 18.824 100.001 19.904 99.7126 21.56ZM110.975 29V16.136H114.623V18.728C115.367 16.976 116.543 15.8 118.727 15.896V19.712H118.535C116.111 19.712 114.623 21.152 114.623 24.248V29H110.975ZM120.503 32.84V16.136H124.151V17.984C125.039 16.76 126.239 15.896 128.159 15.896C131.159 15.896 134.015 18.248 134.015 22.544V22.592C134.015 26.888 131.207 29.24 128.159 29.24C126.215 29.24 125.015 28.352 124.151 27.32V32.84H120.503ZM127.223 26.144C128.927 26.144 130.367 24.752 130.367 22.592V22.544C130.367 20.408 128.927 18.992 127.223 18.992C125.519 18.992 124.103 20.408 124.103 22.544V22.592C124.103 24.728 125.519 26.144 127.223 26.144ZM136.194 29V16.136H139.842V18.728C140.586 16.976 141.762 15.8 143.946 15.896V19.712H143.754C141.33 19.712 139.842 21.152 139.842 24.248V29H136.194ZM145.793 14.72V11.48H149.633V14.72H145.793ZM145.889 29V16.136H149.537V29H145.889ZM156.971 29.24C155.147 29.24 153.179 28.64 151.451 27.296L153.011 24.896C154.427 25.928 155.843 26.432 157.067 26.432C158.123 26.432 158.603 26.048 158.603 25.472V25.424C158.603 24.632 157.355 24.392 155.939 23.936C154.139 23.432 152.099 22.568 152.099 20.072V20.024C152.099 17.408 154.211 15.944 156.803 15.944C158.435 15.944 160.187 16.496 161.603 17.432L160.211 19.952C158.939 19.208 157.667 18.752 156.731 18.752C155.843 18.752 155.387 19.136 155.387 19.64V19.688C155.387 20.36 156.611 20.792 158.003 21.224C159.803 21.8 161.891 22.688 161.891 25.04V25.088C161.891 27.944 159.755 29.24 156.971 29.24ZM170.098 29.288C166.234 29.288 163.378 26.576 163.378 22.64V22.592C163.378 18.92 165.994 15.896 169.738 15.896C174.034 15.896 176.002 19.232 176.002 22.88C176.002 23.168 175.978 23.48 175.954 23.84H167.002C167.362 25.496 168.514 26.36 170.146 26.36C171.37 26.36 172.234 25.976 173.266 25.04L175.354 26.888C174.13 28.4 172.426 29.288 170.098 29.288ZM166.954 21.56H172.45C172.234 19.928 171.274 18.824 169.738 18.824C168.202 18.824 167.242 19.904 166.954 21.56Z" fill="white"/>
</svg>
